<mxfile host="app.diagrams.net" modified="2023-11-28T05:21:17.798Z" agent="Mozilla/5.0 (Macintosh; Intel Mac OS X 10_15_7) AppleWebKit/537.36 (KHTML, like Gecko) Chrome/106.0.0.0 Safari/537.36" version="22.1.4" etag="4Kqlo56riy2lkfyTiuQj" type="github">
  <diagram name="Page-1" id="JJSbDaHcObaac8eBt8V3">
    <mxGraphModel>
      <root>
        <mxCell id="0" />
        <mxCell id="1" parent="0" />
      </root>
    </mxGraphModel>
  </diagram>
</mxfile>
